<?xml version="1.0" ?><svg enable-background="new 0 0 64 64" height="64px" version="1.1" viewBox="0 0 64 64" width="64px" xml:space="preserve" xmlns="http://www.w3.org/2000/svg" xmlns:xlink="http://www.w3.org/1999/xlink"><g id="Layer_1"><g><circle cx="32" cy="32" fill="#4F5D73" r="32"/></g><g opacity="0.2"><circle cx="22" cy="24" fill="#231F20" r="10"/></g><g><circle cx="22" cy="22" fill="#E0995E" r="10"/></g><g opacity="0.2"><path d="M48.667,36c0-7.732-6.566-14-14.667-14c-6.873,0-12.625,4.519-14.216,10.61    C15.379,33.248,12,36.867,12,41.25c0,4.832,4.104,8.75,9.167,8.75h27.5C52.717,50,56,46.866,56,43S52.717,36,48.667,36z" fill="#231F20"/></g><g><g opacity="0.2"><path d="M32,22c0-1.019-0.154-2.001-0.438-2.928c-6.226,0.58-11.3,4.877-12.778,10.538     c-0.838,0.121-1.639,0.352-2.386,0.674C17.996,31.367,19.924,32,22,32C27.523,32,32,27.523,32,22z" fill="#231F20"/></g></g><g><path d="M48.667,34c0-7.732-6.566-14-14.667-14c-6.873,0-12.625,4.519-14.216,10.61    C15.379,31.248,12,34.867,12,39.25c0,4.832,4.104,8.75,9.167,8.75h27.5C52.717,48,56,44.866,56,41S52.717,34,48.667,34z" fill="#FFFFFF"/></g></g><g id="Layer_2"/></svg>